<svg width="320" height="320" viewBox="0 0 320 320" fill="none" xmlns="http://www.w3.org/2000/svg">
<g clip-path="url(#clip0_2047_20044)">
<path d="M252.412 71.7289C235.415 63.9302 217.189 58.1845 198.133 54.8937C197.786 54.8302 197.439 54.9889 197.26 55.3063C194.916 59.4754 192.32 64.9143 190.501 69.1892C170.005 66.1207 149.614 66.1207 129.537 69.1892C127.719 64.8192 125.028 59.4754 122.673 55.3063C122.495 54.9995 122.148 54.8408 121.801 54.8937C102.755 58.174 84.5288 63.9197 67.5218 71.7289C67.3746 71.7924 67.2484 71.8983 67.1647 72.0358C32.5936 123.684 23.1231 174.063 27.769 223.818C27.79 224.061 27.9267 224.294 28.1159 224.442C50.9249 241.192 73.0193 251.361 94.7034 258.102C95.0505 258.207 95.4182 258.08 95.639 257.795C100.768 250.79 105.341 243.404 109.261 235.637C109.493 235.182 109.272 234.642 108.799 234.462C101.546 231.711 94.6403 228.357 87.9973 224.548C87.4719 224.241 87.4298 223.489 87.9132 223.129C89.3111 222.082 90.7095 220.992 92.0443 219.892C92.2858 219.691 92.6223 219.648 92.9063 219.775C136.548 239.7 183.795 239.7 226.922 219.775C227.206 219.638 227.543 219.68 227.795 219.881C229.13 220.982 230.528 222.082 231.936 223.129C232.42 223.489 232.388 224.241 231.863 224.548C225.22 228.431 218.314 231.711 211.051 234.452C210.578 234.632 210.367 235.182 210.599 235.637C214.603 243.393 219.176 250.779 224.21 257.784C224.421 258.08 224.799 258.207 225.146 258.102C246.935 251.361 269.029 241.192 291.839 224.442C292.038 224.294 292.165 224.071 292.186 223.828C297.746 166.307 282.873 116.341 252.758 72.0463C252.685 71.8983 252.559 71.7924 252.412 71.7289ZM115.778 193.522C102.639 193.522 91.8129 181.46 91.8129 166.645C91.8129 151.831 102.429 139.768 115.778 139.768C129.232 139.768 139.954 151.937 139.743 166.645C139.743 181.46 129.127 193.522 115.778 193.522ZM204.386 193.522C191.248 193.522 180.421 181.46 180.421 166.645C180.421 151.831 191.037 139.768 204.386 139.768C217.841 139.768 228.562 151.937 228.352 166.645C228.352 181.46 217.841 193.522 204.386 193.522Z" fill="#13151F"/>
</g>
<defs>
<clipPath id="clip0_2047_20044">
<rect width="266.667" height="206.573" fill="white" transform="translate(26.667 53.3334)"/>
</clipPath>
</defs>
</svg>
