<svg width="320" height="320" viewBox="0 0 320 320" fill="none" xmlns="http://www.w3.org/2000/svg">
<path d="M150 60.44C129.108 47.0583 104.81 39.9633 80 40C65.2399 39.9849 50.5853 42.4875 36.6667 47.4C34.7172 48.0893 33.0294 49.3658 31.8354 51.054C30.6415 52.7422 30.0003 54.759 30 56.8267V246.827C30.0002 248.426 30.3842 250.003 31.1198 251.423C31.8553 252.844 32.9209 254.067 34.2271 254.991C35.5333 255.914 37.042 256.511 38.6265 256.731C40.211 256.95 41.8251 256.787 43.3333 256.253C55.1111 252.099 67.5111 249.985 80 250C106.6 250 130.973 259.427 150 275.147V60.44ZM170 275.147C189.685 258.855 214.448 249.96 240 250C252.88 250 265.2 252.213 276.667 256.267C278.176 256.8 279.791 256.964 281.377 256.743C282.962 256.523 284.472 255.925 285.778 255C287.085 254.075 288.15 252.85 288.885 251.428C289.619 250.005 290.002 248.428 290 246.827V56.8267C290 54.759 289.358 52.7422 288.165 51.054C286.971 49.3658 285.283 48.0893 283.333 47.4C269.415 42.4875 254.76 39.9849 240 40C215.19 39.9633 190.892 47.0583 170 60.44V275.147V275.147Z" fill="#13151F"/>
</svg>
