<svg width="320" height="320" viewBox="0 0 320 320" fill="none" xmlns="http://www.w3.org/2000/svg">
<path d="M265.323 108.484C265.484 110.817 265.484 113.151 265.484 115.505C265.484 187.258 210.861 270.011 110.979 270.011V269.968C81.4734 270.011 52.5809 261.559 27.7422 245.624C32.0325 246.14 36.3443 246.398 40.6669 246.409C65.1186 246.43 88.8713 238.226 108.108 223.118C84.8713 222.678 64.4949 207.527 57.3766 185.409C65.5164 186.979 73.9035 186.656 81.8928 184.473C56.5594 179.355 38.3336 157.097 38.3336 131.247V130.559C45.882 134.764 54.3336 137.097 62.9788 137.355C39.1185 121.409 31.7637 89.6667 46.1723 64.8495C73.7422 98.7743 114.42 119.398 158.086 121.581C153.71 102.721 159.689 82.9571 173.796 69.699C195.667 49.1399 230.065 50.1936 250.624 72.0538C262.785 69.656 274.441 65.1936 285.108 58.871C281.054 71.4409 272.57 82.1184 261.237 88.9033C272 87.6345 282.517 84.7528 292.42 80.3549C285.129 91.2796 275.947 100.796 265.323 108.484Z" fill="#13151F"/>
</svg>
